<svg xmlns="http://www.w3.org/2000/svg" viewBox="0 0 121.19 167.08"><defs><style>.cls-1{fill:#1e1b16;}</style></defs><title>Asset 1</title><g id="Layer_2" data-name="Layer 2"><g id="Layer_1-2" data-name="Layer 1"><path class="cls-1" d="M118,63s4.75-3.17,2.64-15-19.41-16.64-19.41-16.64c10.69.13,14.52,4.89,14.52,4.89,1.06-4.49-4.22-10.83-4.22-10.83-5.29-11.75-12.94-9.24-13.87-11s-4.75-1.85-4.75-1.85-.13-1.32-3.7-4.09S80.51,8,80.51,8c-1.59-3.17-11-2.51-11-2.51S64.13,3.42,57.93,1s-8.46.46-8.46.46C54.41-.51,60,4.35,60,4.35,41.42-.94,31.52,10,28.35,9.36,26.41,9,27,6.84,27.82,5.24c-1.89,3.52-5,10.75,2.9,9.14,10.3-2.11,18,5.94,18,5.94A45.9,45.9,0,0,0,34,17.55C26,17.42,20,26.79,16.6,29.43S10.26,31,8.41,27.59s.79-7.4.79-7.4c-9,11.49,5.28,14.13,5.28,14.13s-4.75,6.34-8.32,7S.75,35.51.75,35.51c-.13,11.88,9.64,15.05,9.64,15.05-6.6,5.28-10.17-3-10.17-3-1.85,18.62,8.45,17.7,8.45,17.7-4.22.53-6.2-1.72-6.2-1.72,1.71,7.92,6.34,10.57,6.34,10.57-5-.67-7.14-6.87-7.14-6.87C5.5,85.42,27.16,77.5,27.16,77.5,26,83.84,14.48,81.59,14.48,81.59c9.25,10.17,21.26-5.41,20.87-11.75s-2-20.73,6.2-27.73,21.53,0,21.53,0a29.57,29.57,0,0,0,6.6-2.24c4.62-2,18.09,1.05,18.09,1.05l1.19-2c3.56-5-7.79-21.65-7.79-21.65s3.69,2.24,9.11,9.64S89.48,39.6,89.35,40s1.45-.13,5.28,1.85,5,15.58,3.83,19.27.27,16.11,2.12,18.36,2,5.94.52,11a18.94,18.94,0,0,0-.66,8.58s3-4.75,3.57-5.94,7.79-6.34,7.79-6.34c-2.24-5.68,1.32-6.2,1.45-6.6S116,80,116,80c-3.7-4.36.26-10.17.26-10.17a8.36,8.36,0,0,0,3.7-3.17C116.42,67.2,118,63,118,63Z"/><path class="cls-1" d="M65.23,109.74a8,8,0,0,0-3.82-1.28,14.83,14.83,0,0,0-5,1.77s-.84-.84-4.47,1.58a24.66,24.66,0,0,1-7.27,3.26l-3.07,1.4s-5.22-.47-6.06-1.12-2-3.54-2-3.91a16.1,16.1,0,0,0-.65-4.29,20.58,20.58,0,0,0-1.3-2.89s-1.31-3.45-2.33-6.33-.84-11.46-.84-11.46V81.71s-1.2,13.89-1,16.4-.22,9,0,11.65.61,6.15-.05,8.29.63,9.32.63,9.32l1.21-.84s-.55,7.18.28,9.32,2.15,8.39,4.29,11.93l.28-1.4S36,151,36.91,152s7.73,7.64,13,9.78,8.95,3.82,8.95,3.82l4.84,1,1.49.48,1.49-.48,4.85-1s3.63-1.67,9-3.82,12.11-8.85,13-9.78,2.89-5.59,2.89-5.59l.28,1.4c2.14-3.54,3.45-9.79,4.28-11.93s.28-9.32.28-9.32l1.21.84s1.31-7.17.64-9.32-.26-5.68-.06-8.29-.2-9.13,0-11.65-1-16.4-1-16.4v4.76s.19,8.57-.84,11.46-2.33,6.33-2.33,6.33a20.58,20.58,0,0,0-1.3,2.89,16.24,16.24,0,0,0-.66,4.29c0,.37-1.11,3.26-2,3.91s-6.06,1.12-6.06,1.12l-3.07-1.4a24.66,24.66,0,0,1-7.27-3.26c-3.64-2.42-4.47-1.58-4.47-1.58a14.92,14.92,0,0,0-5-1.77A8,8,0,0,0,65.23,109.74Zm0,12.91c-2.83.14-7.27-.12-7.82-.12s-5.41-1.4-5.41-1.4a33.26,33.26,0,0,1,4.2-1.4c1.95-.47,5-.75,5.31-.84a26.85,26.85,0,0,1,2.7,0h2.05a26.85,26.85,0,0,1,2.7,0c.28.09,3.36.37,5.31.84a33.26,33.26,0,0,1,4.2,1.4s-4.76,1.4-5.41,1.4S68.07,122.79,65.23,122.65Z"/></g></g></svg>