<?xml version="1.0" encoding="UTF-8" standalone="no"?>
<!DOCTYPE svg PUBLIC "-//W3C//DTD SVG 1.1//EN" "http://www.w3.org/Graphics/SVG/1.1/DTD/svg11.dtd">
<svg width="100%" height="100%" viewBox="0 0 1172 340" version="1.1" xmlns="http://www.w3.org/2000/svg" xmlns:xlink="http://www.w3.org/1999/xlink" xml:space="preserve" xmlns:serif="http://www.serif.com/" style="fill-rule:evenodd;clip-rule:evenodd;stroke-linejoin:round;stroke-miterlimit:2;">
    <g transform="matrix(2,0,0,2,-1044.04,-1263.58)">
        <g transform="matrix(2,0,0,2,0,0)">
            <g transform="matrix(1,0,0,1,-183.572,222.164)">
                <path d="M492.643,155.669C494.899,156.316 497.206,157.338 499.017,159.058C500.831,160.762 501.988,163.308 501.895,165.879C501.837,168.444 500.816,170.891 499.284,172.874C497.754,174.867 495.694,176.46 493.345,177.439C490.995,178.43 488.334,178.746 485.788,178.332C483.235,177.919 480.848,176.806 478.802,175.334C476.754,173.85 475.012,172.036 473.508,170.086L472.955,169.347L472.817,169.16L472.665,168.937L472.416,168.576C472.039,167.978 471.705,167.383 471.436,166.797C470.879,165.608 470.469,164.374 470.171,163.124C469.025,158.115 469.512,152.915 471.113,148.091C472.737,143.263 475.686,138.849 479.509,135.431C483.333,131.998 487.96,129.608 492.731,128.127C497.518,126.633 502.451,125.966 507.329,125.823C512.211,125.687 517.052,126.042 521.81,126.747C524.19,127.083 526.546,127.532 528.888,128.023L532.32,128.771C533.497,129.035 534.508,129.198 535.629,129.394C544.507,130.846 553.67,130.342 562.298,127.743C570.932,125.16 578.993,120.65 586.084,114.9C589.632,112.023 592.956,108.849 596.03,105.444C599.08,102.048 601.985,98.373 604.357,94.589L604.412,94.503C604.896,93.732 605.914,93.498 606.685,93.981C607.345,94.395 607.61,95.203 607.368,95.911C606.895,97.303 606.385,98.565 605.842,99.864C605.305,101.152 604.726,102.418 604.129,103.675C602.926,106.184 601.625,108.644 600.195,111.027C597.35,115.799 594.083,120.33 590.346,124.448C589.423,125.488 588.446,126.477 587.467,127.462C586.455,128.417 585.465,129.394 584.396,130.285C583.361,131.21 582.259,132.059 581.165,132.917C580.035,133.725 578.932,134.571 577.745,135.298C576.591,136.07 575.384,136.759 574.169,137.433C572.938,138.073 571.704,138.712 570.43,139.256L568.514,140.067L566.56,140.771C565.268,141.273 563.912,141.575 562.592,141.982C562.34,142.061 562.072,141.918 561.994,141.667C561.919,141.422 562.05,141.163 562.289,141.076L562.335,141.059C563.611,140.601 564.922,140.248 566.16,139.699L568.037,138.927L569.866,138.052C571.083,137.468 572.254,136.791 573.42,136.115C574.568,135.405 575.721,134.706 576.812,133.912C577.938,133.168 578.978,132.304 580.044,131.485C581.073,130.614 582.11,129.755 583.083,128.821C584.086,127.923 585.012,126.939 585.955,125.979C586.872,124.99 587.783,124 588.643,122.96C592.119,118.84 595.126,114.333 597.719,109.609C598.372,108.43 598.989,107.23 599.588,106.026C600.197,104.825 600.767,103.604 601.319,102.377C601.863,101.146 602.392,99.909 602.876,98.66C603.358,97.42 603.837,96.13 604.213,94.92L607.224,96.24C604.734,100.456 601.898,104.219 598.8,107.875C595.696,111.5 592.324,114.904 588.681,118.021C581.404,124.23 572.988,129.346 563.699,132.276C559.071,133.754 554.263,134.701 549.405,135.087C544.549,135.477 539.65,135.28 534.84,134.602C533.652,134.42 532.35,134.227 531.238,133.989L527.804,133.29C525.559,132.852 523.31,132.453 521.052,132.167C516.544,131.562 512.012,131.3 507.537,131.486C503.068,131.676 498.648,132.354 494.512,133.711C490.376,135.059 486.516,137.051 483.263,139.77C479.997,142.459 477.351,145.895 475.636,149.817C473.943,153.725 473.179,158.174 473.875,162.369C474.048,163.411 474.313,164.43 474.682,165.389C474.869,165.88 475.085,166.322 475.298,166.733L475.521,167.111L475.605,167.258L475.721,167.429L476.186,168.119C477.452,169.938 478.914,171.598 480.597,172.95C482.283,174.289 484.207,175.292 486.268,175.729C488.321,176.163 490.496,176.021 492.504,175.289C494.512,174.567 496.35,173.29 497.749,171.638C499.152,169.997 500.11,167.942 500.262,165.815C500.438,163.683 499.613,161.556 498.102,159.972C496.569,158.379 494.527,157.318 492.34,156.579C492.09,156.495 491.953,156.222 492.039,155.972C492.122,155.729 492.38,155.596 492.623,155.665L492.643,155.669Z" style="fill:rgb(38,39,40);fill-rule:nonzero;"/>
            </g>
            <g transform="matrix(1,0,0,1,-183.572,222.164)">
                <path d="M444.582,128.162C444.582,128.162 444.87,128.33 445.425,128.611C445.967,128.911 446.805,129.281 447.832,129.801C448.889,130.275 450.143,130.889 451.625,131.505C453.09,132.155 454.777,132.802 456.605,133.526C457.51,133.906 458.49,134.214 459.488,134.569C460.493,134.901 461.495,135.336 462.577,135.651C464.724,136.323 466.971,137.06 469.336,137.684C470.521,138 471.703,138.377 472.933,138.655C474.162,138.928 475.403,139.208 476.648,139.518C477.272,139.667 477.898,139.816 478.527,139.965L480.438,140.32C481.713,140.556 482.996,140.794 484.277,141.031C486.844,141.484 489.435,141.797 491.975,142.183C494.532,142.403 497.046,142.685 499.484,142.923C501.934,143.053 504.302,143.178 506.547,143.296C507.111,143.322 507.667,143.37 508.212,143.377C508.76,143.376 509.299,143.375 509.827,143.375C510.89,143.383 511.916,143.392 512.898,143.401C514.869,143.387 516.688,143.509 518.289,143.396C519.892,143.322 521.296,143.294 522.456,143.264C524.772,143.211 526.109,143.215 526.109,143.215C526.109,143.215 524.817,143.506 522.536,143.962C521.395,144.185 520.008,144.465 518.408,144.743C516.813,145.086 514.989,145.219 513,145.429C511.009,145.59 508.852,145.941 506.557,145.936C504.264,145.978 501.837,146.075 499.329,146.034C496.827,145.882 494.229,145.803 491.603,145.578C488.993,145.223 486.323,144.948 483.68,144.515C482.365,144.25 481.051,143.985 479.74,143.721L477.784,143.326C477.14,143.161 476.496,142.998 475.857,142.837C474.578,142.514 473.314,142.169 472.069,141.823C470.824,141.479 469.623,141.034 468.425,140.654C466.02,139.928 463.783,138.963 461.65,138.112C459.529,137.219 457.562,136.288 455.778,135.37C454.896,134.901 454.045,134.451 453.239,134.021C452.44,133.578 451.706,133.112 451.006,132.7C449.599,131.893 448.445,131.047 447.478,130.405C445.578,129.045 444.582,128.162 444.582,128.162Z" style="fill:rgb(38,39,40);fill-rule:nonzero;"/>
            </g>
            <g transform="matrix(1,0,0,1,-183.572,222.164)">
                <path d="M689.661,156.579C687.473,157.318 685.431,158.379 683.901,159.972C682.389,161.556 681.562,163.683 681.739,165.815C681.889,167.942 682.849,169.997 684.254,171.638C685.651,173.29 687.49,174.567 689.498,175.289C691.504,176.021 693.682,176.163 695.734,175.729C697.795,175.292 699.721,174.289 701.404,172.95C703.088,171.598 704.551,169.938 705.814,168.119L706.279,167.429L706.396,167.258L706.481,167.111L706.705,166.733C706.916,166.322 707.132,165.88 707.316,165.389C707.688,164.43 707.955,163.411 708.129,162.369C708.82,158.174 708.056,153.725 706.364,149.817C704.651,145.895 702.004,142.459 698.737,139.77C695.485,137.051 691.622,135.059 687.488,133.711C683.352,132.354 678.934,131.676 674.465,131.486C669.989,131.3 665.457,131.562 660.948,132.167C658.692,132.453 656.442,132.852 654.199,133.29L650.764,133.989C649.653,134.227 648.348,134.42 647.161,134.602C642.35,135.28 637.451,135.477 632.594,135.087C627.738,134.701 622.929,133.754 618.301,132.276C609.014,129.346 600.596,124.23 593.318,118.021C589.677,114.904 586.303,111.5 583.201,107.875C580.104,104.219 577.268,100.456 574.775,96.24L577.788,94.92C578.165,96.13 578.641,97.42 579.125,98.66C579.607,99.909 580.139,101.146 580.682,102.377C581.236,103.604 581.803,104.825 582.411,106.026C583.013,107.23 583.629,108.43 584.284,109.609C586.876,114.333 589.883,118.84 593.359,122.96C594.218,124 595.128,124.99 596.043,125.979C596.987,126.939 597.913,127.923 598.917,128.821C599.891,129.755 600.93,130.614 601.958,131.485C603.024,132.304 604.064,133.168 605.188,133.912C606.282,134.706 607.434,135.405 608.58,136.115C609.746,136.791 610.918,137.468 612.135,138.052L613.965,138.927L615.839,139.699C617.079,140.248 618.389,140.601 619.667,141.059L619.711,141.076C619.959,141.166 620.088,141.439 619.999,141.688C619.913,141.929 619.651,142.056 619.409,141.982C618.091,141.575 616.732,141.273 615.442,140.771L613.486,140.067L611.572,139.256C610.297,138.712 609.063,138.073 607.831,137.433C606.618,136.759 605.411,136.07 604.256,135.298C603.071,134.571 601.967,133.725 600.837,132.917C599.743,132.059 598.642,131.21 597.605,130.285C596.533,129.394 595.545,128.417 594.536,127.462C593.556,126.477 592.579,125.488 591.654,124.448C587.918,120.33 584.652,115.799 581.805,111.027C580.375,108.644 579.075,106.184 577.872,103.675C577.276,102.418 576.696,101.152 576.158,99.864C575.616,98.565 575.107,97.303 574.633,95.911C574.339,95.048 574.799,94.113 575.66,93.818C576.399,93.567 577.19,93.869 577.589,94.502L577.642,94.589C580.016,98.373 582.921,102.048 585.97,105.444C589.045,108.849 592.367,112.023 595.915,114.9C603.008,120.65 611.07,125.16 619.701,127.743C628.33,130.342 637.496,130.846 646.373,129.394C647.491,129.198 648.502,129.035 649.682,128.771L653.111,128.023C655.455,127.532 657.811,127.083 660.193,126.747C664.947,126.042 669.79,125.687 674.672,125.823C679.549,125.966 684.484,126.633 689.267,128.127C694.04,129.608 698.668,131.998 702.491,135.431C706.314,138.849 709.266,143.263 710.885,148.091C712.49,152.915 712.977,158.115 711.83,163.124C711.533,164.374 711.121,165.608 710.564,166.797C710.296,167.383 709.962,167.978 709.585,168.576L709.336,168.937L709.185,169.16L709.047,169.347L708.494,170.086C706.991,172.036 705.246,173.85 703.201,175.334C701.153,176.806 698.767,177.919 696.213,178.332C693.665,178.746 691.004,178.43 688.659,177.439C686.305,176.46 684.247,174.867 682.716,172.874C681.186,170.891 680.165,168.444 680.107,165.879C680.012,163.308 681.169,160.762 682.982,159.058C684.795,157.338 687.099,156.316 689.356,155.669L689.376,155.665C689.631,155.592 689.896,155.74 689.97,155.994C690.04,156.24 689.901,156.498 689.661,156.579Z" style="fill:rgb(38,39,40);fill-rule:nonzero;"/>
            </g>
            <g transform="matrix(1,0,0,1,-183.572,222.164)">
                <path d="M737.42,128.162C737.42,128.162 736.424,129.045 734.522,130.405C733.553,131.047 732.405,131.893 730.994,132.7C730.293,133.112 729.559,133.578 728.763,134.021C727.955,134.451 727.106,134.901 726.221,135.37C724.438,136.288 722.472,137.219 720.354,138.112C718.219,138.963 715.98,139.928 713.576,140.654C712.38,141.034 711.179,141.479 709.933,141.823C708.688,142.169 707.423,142.514 706.143,142.837C705.504,142.998 704.862,143.161 704.219,143.326L702.259,143.721C700.951,143.985 699.638,144.25 698.322,144.515C695.678,144.948 693.009,145.223 690.396,145.578C687.77,145.803 685.173,145.882 682.672,146.034C680.163,146.075 677.739,145.978 675.445,145.936C673.15,145.941 670.991,145.59 669.002,145.429C667.012,145.219 665.188,145.086 663.594,144.743C661.993,144.465 660.604,144.185 659.465,143.962C657.185,143.506 655.894,143.215 655.894,143.215C655.894,143.215 657.227,143.211 659.546,143.264C660.704,143.294 662.108,143.322 663.711,143.396C665.313,143.509 667.132,143.387 669.101,143.401C670.086,143.392 671.112,143.383 672.175,143.375C672.704,143.375 673.241,143.376 673.787,143.377C674.337,143.37 674.891,143.322 675.452,143.296C677.699,143.178 680.066,143.053 682.515,142.923C684.956,142.685 687.471,142.403 690.027,142.183C692.568,141.797 695.157,141.484 697.725,141.031C699.007,140.794 700.285,140.556 701.564,140.32L703.475,139.965C704.104,139.816 704.729,139.667 705.354,139.518C706.597,139.208 707.84,138.928 709.069,138.655C710.296,138.377 711.482,138 712.664,137.684C715.032,137.06 717.276,136.323 719.424,135.651C720.507,135.336 721.509,134.901 722.514,134.569C723.511,134.214 724.493,133.906 725.396,133.526C727.223,132.802 728.912,132.155 730.375,131.505C731.855,130.889 733.111,130.275 734.168,129.801C735.197,129.281 736.034,128.911 736.576,128.611C737.131,128.33 737.42,128.162 737.42,128.162Z" style="fill:rgb(38,39,40);fill-rule:nonzero;"/>
            </g>
        </g>
    </g>
</svg>
