<?xml version="1.0" encoding="UTF-8" standalone="no"?>
<!DOCTYPE svg PUBLIC "-//W3C//DTD SVG 1.1//EN" "http://www.w3.org/Graphics/SVG/1.1/DTD/svg11.dtd">
<svg width="100%" height="100%" viewBox="0 0 118 110" version="1.1" xmlns="http://www.w3.org/2000/svg" xmlns:xlink="http://www.w3.org/1999/xlink" xml:space="preserve" xmlns:serif="http://www.serif.com/" style="fill-rule:evenodd;clip-rule:evenodd;stroke-linejoin:round;stroke-miterlimit:2;">
    <g transform="matrix(0.48,0,0,0.48,-350.682,-694.311)">
        <g transform="matrix(4.16667,0,0,4.16667,0,0)">
            <path d="M195.714,369.955L202.898,376.469C203.063,376.616 203.295,376.628 203.418,376.493C203.542,376.356 203.509,376.124 203.345,375.977L196.16,369.463C195.996,369.315 195.764,369.306 195.642,369.44C195.519,369.577 195.55,369.807 195.714,369.955Z" style="fill:white;fill-rule:nonzero;"/>
        </g>
        <g transform="matrix(4.16667,0,0,4.16667,0,0)">
            <path d="M194.834,370.926L202.02,377.438C202.182,377.588 202.415,377.597 202.539,377.461C202.66,377.324 202.627,377.096 202.465,376.946L195.281,370.434C195.115,370.284 194.884,370.275 194.763,370.412C194.637,370.546 194.67,370.776 194.834,370.926Z" style="fill:white;fill-rule:nonzero;"/>
        </g>
        <g transform="matrix(4.16667,0,0,4.16667,0,0)">
            <path d="M193.955,371.895L201.14,378.41C201.304,378.558 201.536,378.566 201.659,378.433C201.783,378.296 201.75,378.065 201.586,377.92L194.401,371.405C194.237,371.256 194.005,371.245 193.881,371.381C193.758,371.518 193.791,371.746 193.955,371.895Z" style="fill:white;fill-rule:nonzero;"/>
        </g>
        <g transform="matrix(4.16667,0,0,4.16667,0,0)">
            <path d="M193.076,372.865L200.261,379.378C200.425,379.525 200.658,379.536 200.779,379.401C200.903,379.266 200.87,379.035 200.708,378.888L193.521,372.373C193.358,372.224 193.126,372.215 193.002,372.349C192.881,372.485 192.912,372.716 193.076,372.865Z" style="fill:white;fill-rule:nonzero;"/>
        </g>
        <g transform="matrix(4.16667,0,0,4.16667,0,0)">
            <path d="M192.197,373.835L199.382,380.35C199.544,380.497 199.778,380.508 199.9,380.371C200.023,380.236 199.991,380.007 199.826,379.857L192.643,373.345C192.477,373.195 192.247,373.186 192.123,373.322C192,373.459 192.031,373.687 192.197,373.835Z" style="fill:white;fill-rule:nonzero;"/>
        </g>
        <g transform="matrix(4.16667,0,0,4.16667,0,0)">
            <path d="M191.315,374.807L198.503,381.32C198.665,381.468 198.897,381.478 199.021,381.343C199.145,381.206 199.109,380.976 198.947,380.828L191.764,374.314C191.6,374.165 191.367,374.155 191.242,374.29C191.12,374.427 191.151,374.657 191.315,374.807Z" style="fill:white;fill-rule:nonzero;"/>
        </g>
        <g transform="matrix(4.16667,0,0,4.16667,0,0)">
            <path d="M190.437,375.775L197.624,382.288C197.786,382.437 198.02,382.447 198.142,382.311C198.265,382.176 198.232,381.947 198.068,381.796L190.882,375.284C190.72,375.136 190.486,375.127 190.364,375.264C190.243,375.396 190.274,375.627 190.437,375.775Z" style="fill:white;fill-rule:nonzero;"/>
        </g>
        <g transform="matrix(4.16667,0,0,4.16667,0,0)">
            <path d="M189.559,376.745L196.743,383.26C196.906,383.407 197.139,383.418 197.262,383.282C197.384,383.147 197.351,382.917 197.188,382.768L190.005,376.253C189.841,376.105 189.607,376.095 189.485,376.233C189.363,376.366 189.393,376.596 189.559,376.745Z" style="fill:white;fill-rule:nonzero;"/>
        </g>
        <g transform="matrix(4.16667,0,0,4.16667,0,0)">
            <path d="M188.678,377.717L195.865,384.229C196.027,384.377 196.259,384.388 196.383,384.252C196.506,384.115 196.473,383.885 196.311,383.737L189.125,377.223C188.96,377.075 188.729,377.064 188.606,377.201C188.482,377.337 188.514,377.567 188.678,377.717Z" style="fill:white;fill-rule:nonzero;"/>
        </g>
        <g transform="matrix(4.16667,0,0,4.16667,0,0)">
            <path d="M187.8,378.686L194.986,385.199C195.146,385.347 195.38,385.357 195.504,385.223C195.627,385.085 195.594,384.856 195.43,384.707L188.245,378.194C188.081,378.047 187.85,378.038 187.727,378.174C187.603,378.307 187.636,378.539 187.8,378.686Z" style="fill:white;fill-rule:nonzero;"/>
        </g>
        <g transform="matrix(4.16667,0,0,4.16667,0,0)">
            <path d="M186.921,379.656L194.104,386.169C194.269,386.316 194.501,386.327 194.625,386.192C194.748,386.057 194.715,385.824 194.551,385.677L187.365,379.164C187.203,379.017 186.971,379.006 186.847,379.14C186.724,379.278 186.757,379.507 186.921,379.656Z" style="fill:white;fill-rule:nonzero;"/>
        </g>
        <g transform="matrix(4.16667,0,0,4.16667,0,0)">
            <path d="M186.04,380.624L193.225,387.141C193.389,387.287 193.622,387.299 193.745,387.162C193.869,387.027 193.835,386.795 193.671,386.648L186.486,380.134C186.322,379.986 186.091,379.975 185.968,380.111C185.845,380.248 185.876,380.477 186.04,380.624Z" style="fill:white;fill-rule:nonzero;"/>
        </g>
        <g transform="matrix(4.16667,0,0,4.16667,0,0)">
            <path d="M185.161,381.594L192.346,388.109C192.51,388.257 192.742,388.267 192.866,388.132C192.987,387.995 192.955,387.767 192.792,387.617L185.606,381.105C185.443,380.956 185.212,380.946 185.087,381.081C184.965,381.216 184.999,381.446 185.161,381.594Z" style="fill:white;fill-rule:nonzero;"/>
        </g>
        <g transform="matrix(4.16667,0,0,4.16667,0,0)">
            <path d="M184.281,382.566L191.467,389.079C191.631,389.227 191.863,389.238 191.987,389.103C192.11,388.967 192.077,388.734 191.913,388.587L184.728,382.074C184.563,381.926 184.331,381.916 184.208,382.053C184.086,382.187 184.117,382.418 184.281,382.566Z" style="fill:white;fill-rule:nonzero;"/>
        </g>
        <g transform="matrix(4.16667,0,0,4.16667,0,0)">
            <path d="M183.404,383.534L190.587,390.049C190.751,390.196 190.985,390.208 191.107,390.073C191.231,389.936 191.198,389.704 191.034,389.557L183.848,383.042C183.684,382.894 183.454,382.886 183.33,383.02C183.207,383.156 183.24,383.387 183.404,383.534Z" style="fill:white;fill-rule:nonzero;"/>
        </g>
        <g transform="matrix(4.16667,0,0,4.16667,0,0)">
            <path d="M182.523,384.506L189.708,391.02C189.872,391.168 190.104,391.177 190.228,391.041C190.35,390.906 190.316,390.676 190.154,390.528L182.969,384.016C182.805,383.866 182.573,383.855 182.451,383.992C182.327,384.126 182.359,384.354 182.523,384.506Z" style="fill:white;fill-rule:nonzero;"/>
        </g>
        <g transform="matrix(4.16667,0,0,4.16667,0,0)">
            <path d="M181.644,385.476L188.829,391.988C188.993,392.138 189.225,392.146 189.347,392.012C189.472,391.878 189.439,391.645 189.275,391.498L182.09,384.985C181.925,384.836 181.695,384.825 181.572,384.961C181.448,385.098 181.481,385.326 181.644,385.476Z" style="fill:white;fill-rule:nonzero;"/>
        </g>
        <g transform="matrix(4.16667,0,0,4.16667,0,0)">
            <path d="M180.764,386.445L187.95,392.96C188.114,393.107 188.346,393.118 188.468,392.981C188.591,392.846 188.558,392.617 188.396,392.468L181.21,385.953C181.046,385.806 180.814,385.796 180.69,385.933C180.569,386.067 180.6,386.298 180.764,386.445Z" style="fill:white;fill-rule:nonzero;"/>
        </g>
        <g transform="matrix(4.16667,0,0,4.16667,0,0)">
            <path d="M179.885,387.417L187.07,393.93C187.232,394.078 187.467,394.088 187.588,393.951C187.712,393.814 187.681,393.586 187.517,393.437L180.331,386.925C180.167,386.775 179.935,386.766 179.811,386.902C179.688,387.037 179.721,387.268 179.885,387.417Z" style="fill:white;fill-rule:nonzero;"/>
        </g>
        <g transform="matrix(4.16667,0,0,4.16667,0,0)">
            <path d="M179.006,388.387L186.191,394.898C186.355,395.048 186.587,395.056 186.711,394.923C186.833,394.784 186.799,394.556 186.637,394.406L179.452,387.894C179.288,387.745 179.057,387.735 178.932,387.87C178.81,388.007 178.843,388.237 179.006,388.387Z" style="fill:white;fill-rule:nonzero;"/>
        </g>
        <g transform="matrix(4.16667,0,0,4.16667,0,0)">
            <path d="M178.126,389.354L185.312,395.87C185.474,396.018 185.708,396.028 185.83,395.893C185.953,395.756 185.922,395.525 185.758,395.378L178.571,388.863C178.409,388.716 178.176,388.707 178.053,388.844C177.931,388.978 177.962,389.207 178.126,389.354Z" style="fill:white;fill-rule:nonzero;"/>
        </g>
        <g transform="matrix(4.16667,0,0,4.16667,0,0)">
            <path d="M177.247,390.325L184.433,396.838C184.595,396.987 184.829,396.998 184.951,396.862C185.074,396.726 185.041,396.497 184.878,396.35L177.693,389.833C177.529,389.686 177.297,389.675 177.175,389.811C177.052,389.949 177.083,390.176 177.247,390.325Z" style="fill:white;fill-rule:nonzero;"/>
        </g>
        <g transform="matrix(4.16667,0,0,4.16667,0,0)">
            <path d="M176.368,391.295L183.553,397.81C183.715,397.957 183.948,397.968 184.071,397.832C184.195,397.697 184.162,397.467 184,397.319L176.812,390.805C176.648,390.657 176.417,390.646 176.294,390.782C176.172,390.917 176.204,391.145 176.368,391.295Z" style="fill:white;fill-rule:nonzero;"/>
        </g>
        <g transform="matrix(4.16667,0,0,4.16667,0,0)">
            <path d="M175.488,392.267L182.672,398.779C182.836,398.927 183.07,398.937 183.192,398.803C183.317,398.667 183.282,398.435 183.12,398.287L175.933,391.774C175.771,391.625 175.539,391.616 175.415,391.752C175.293,391.887 175.325,392.117 175.488,392.267Z" style="fill:white;fill-rule:nonzero;"/>
        </g>
        <g transform="matrix(4.16667,0,0,4.16667,0,0)">
            <path d="M214.084,349.692L221.268,356.207C221.432,356.354 221.664,356.363 221.787,356.228C221.91,356.093 221.878,355.862 221.714,355.715L214.528,349.2C214.366,349.053 214.134,349.042 214.01,349.177C213.887,349.312 213.92,349.543 214.084,349.692Z" style="fill:white;fill-rule:nonzero;"/>
        </g>
        <g transform="matrix(4.16667,0,0,4.16667,0,0)">
            <path d="M213.204,350.662L220.39,357.175C220.552,357.324 220.786,357.333 220.908,357.198C221.031,357.064 220.998,356.832 220.836,356.683L213.648,350.17C213.484,350.02 213.254,350.012 213.133,350.147C213.007,350.282 213.04,350.513 213.204,350.662Z" style="fill:white;fill-rule:nonzero;"/>
        </g>
        <g transform="matrix(4.16667,0,0,4.16667,0,0)">
            <path d="M212.325,351.632L219.509,358.146C219.673,358.294 219.905,358.305 220.028,358.168C220.152,358.033 220.117,357.802 219.955,357.655L212.77,351.142C212.605,350.992 212.373,350.981 212.25,351.119C212.128,351.256 212.161,351.484 212.325,351.632Z" style="fill:white;fill-rule:nonzero;"/>
        </g>
        <g transform="matrix(4.16667,0,0,4.16667,0,0)">
            <path d="M211.444,352.602L218.63,359.115C218.794,359.264 219.025,359.274 219.149,359.138C219.271,359.003 219.238,358.772 219.075,358.625L211.891,352.111C211.728,351.962 211.494,351.952 211.372,352.087C211.249,352.224 211.282,352.454 211.444,352.602Z" style="fill:white;fill-rule:nonzero;"/>
        </g>
        <g transform="matrix(4.16667,0,0,4.16667,0,0)">
            <path d="M210.564,353.572L217.75,360.085C217.914,360.234 218.146,360.242 218.27,360.107C218.392,359.973 218.36,359.742 218.196,359.593L211.011,353.08C210.847,352.932 210.614,352.924 210.493,353.059C210.369,353.193 210.402,353.424 210.564,353.572Z" style="fill:white;fill-rule:nonzero;"/>
        </g>
        <g transform="matrix(4.16667,0,0,4.16667,0,0)">
            <path d="M209.686,354.542L216.871,361.055C217.035,361.202 217.268,361.215 217.391,361.079C217.515,360.942 217.479,360.71 217.317,360.562L210.132,354.05C209.968,353.902 209.735,353.892 209.611,354.028C209.49,354.164 209.523,354.394 209.686,354.542Z" style="fill:white;fill-rule:nonzero;"/>
        </g>
        <g transform="matrix(4.16667,0,0,4.16667,0,0)">
            <path d="M208.807,355.512L215.992,362.026C216.154,362.174 216.388,362.185 216.512,362.049C216.633,361.912 216.602,361.682 216.438,361.534L209.252,355.019C209.088,354.872 208.856,354.863 208.732,354.998C208.61,355.134 208.643,355.364 208.807,355.512Z" style="fill:white;fill-rule:nonzero;"/>
        </g>
        <g transform="matrix(4.16667,0,0,4.16667,0,0)">
            <path d="M207.927,356.483L215.112,362.998C215.276,363.145 215.509,363.154 215.63,363.019C215.754,362.884 215.721,362.653 215.557,362.506L208.373,355.991C208.209,355.844 207.977,355.833 207.854,355.967C207.729,356.103 207.763,356.336 207.927,356.483Z" style="fill:white;fill-rule:nonzero;"/>
        </g>
        <g transform="matrix(4.16667,0,0,4.16667,0,0)">
            <path d="M207.048,357.453L214.235,363.966C214.397,364.113 214.629,364.124 214.753,363.987C214.875,363.853 214.844,363.621 214.681,363.474L207.494,356.961C207.33,356.813 207.098,356.801 206.976,356.938C206.853,357.073 206.884,357.302 207.048,357.453Z" style="fill:white;fill-rule:nonzero;"/>
        </g>
        <g transform="matrix(4.16667,0,0,4.16667,0,0)">
            <path d="M206.169,358.421L213.354,364.936C213.516,365.084 213.75,365.094 213.874,364.959C213.995,364.822 213.962,364.592 213.8,364.444L206.614,357.931C206.45,357.781 206.218,357.771 206.095,357.908C205.971,358.045 206.004,358.273 206.169,358.421Z" style="fill:white;fill-rule:nonzero;"/>
        </g>
        <g transform="matrix(4.16667,0,0,4.16667,0,0)">
            <path d="M205.289,359.393L212.475,365.906C212.639,366.054 212.869,366.063 212.994,365.927C213.118,365.792 213.083,365.561 212.921,365.414L205.735,358.9C205.571,358.751 205.339,358.741 205.216,358.878C205.094,359.015 205.125,359.243 205.289,359.393Z" style="fill:white;fill-rule:nonzero;"/>
        </g>
        <g transform="matrix(4.16667,0,0,4.16667,0,0)">
            <path d="M204.41,360.363L211.594,366.876C211.76,367.023 211.991,367.035 212.113,366.898C212.236,366.764 212.203,366.531 212.04,366.384L204.855,359.871C204.691,359.722 204.46,359.715 204.336,359.848C204.215,359.983 204.246,360.214 204.41,360.363Z" style="fill:white;fill-rule:nonzero;"/>
        </g>
        <g transform="matrix(4.16667,0,0,4.16667,0,0)">
            <path d="M203.53,361.331L210.716,367.844C210.878,367.993 211.11,368.004 211.235,367.868C211.359,367.733 211.324,367.501 211.164,367.353L203.977,360.841C203.813,360.691 203.58,360.683 203.457,360.817C203.335,360.953 203.368,361.182 203.53,361.331Z" style="fill:white;fill-rule:nonzero;"/>
        </g>
        <g transform="matrix(4.16667,0,0,4.16667,0,0)">
            <path d="M202.651,362.303L209.837,368.817C209.999,368.965 210.231,368.974 210.354,368.838C210.479,368.703 210.445,368.473 210.283,368.325L203.096,361.811C202.934,361.661 202.699,361.652 202.577,361.788C202.454,361.923 202.487,362.155 202.651,362.303Z" style="fill:white;fill-rule:nonzero;"/>
        </g>
        <g transform="matrix(4.16667,0,0,4.16667,0,0)">
            <path d="M201.772,363.272L208.956,369.785C209.119,369.935 209.354,369.943 209.476,369.809C209.599,369.673 209.565,369.442 209.403,369.293L202.218,362.78C202.054,362.631 201.822,362.624 201.698,362.758C201.576,362.893 201.607,363.123 201.772,363.272Z" style="fill:white;fill-rule:nonzero;"/>
        </g>
        <g transform="matrix(4.16667,0,0,4.16667,0,0)">
            <path d="M200.892,364.242L208.078,370.757C208.24,370.904 208.473,370.915 208.596,370.778C208.72,370.644 208.687,370.412 208.524,370.263L201.337,363.75C201.175,363.603 200.942,363.593 200.82,363.729C200.696,363.866 200.729,364.095 200.892,364.242Z" style="fill:white;fill-rule:nonzero;"/>
        </g>
        <g transform="matrix(4.16667,0,0,4.16667,0,0)">
            <path d="M200.013,365.212L207.199,371.728C207.361,371.873 207.595,371.885 207.717,371.75C207.84,371.611 207.808,371.383 207.645,371.235L200.458,364.72C200.294,364.572 200.064,364.561 199.94,364.697C199.817,364.836 199.85,365.064 200.013,365.212Z" style="fill:white;fill-rule:nonzero;"/>
        </g>
        <g transform="matrix(4.16667,0,0,4.16667,0,0)">
            <path d="M199.135,366.182L206.319,372.695C206.483,372.843 206.714,372.854 206.838,372.718C206.961,372.583 206.928,372.353 206.764,372.205L199.579,365.69C199.417,365.542 199.183,365.532 199.062,365.667C198.938,365.804 198.969,366.032 199.135,366.182Z" style="fill:white;fill-rule:nonzero;"/>
        </g>
        <g transform="matrix(4.16667,0,0,4.16667,0,0)">
            <path d="M198.254,367.152L205.438,373.665C205.603,373.812 205.837,373.826 205.958,373.687C206.082,373.553 206.049,373.324 205.885,373.173L198.702,366.66C198.536,366.511 198.306,366.502 198.182,366.641C198.057,366.773 198.092,367.003 198.254,367.152Z" style="fill:white;fill-rule:nonzero;"/>
        </g>
        <g transform="matrix(4.16667,0,0,4.16667,0,0)">
            <path d="M197.375,368.122L204.561,374.637C204.725,374.784 204.955,374.795 205.079,374.659C205.202,374.522 205.169,374.292 205.005,374.144L197.821,367.63C197.657,367.482 197.424,367.472 197.303,367.608C197.179,367.744 197.21,367.975 197.375,368.122Z" style="fill:white;fill-rule:nonzero;"/>
        </g>
        <g transform="matrix(4.16667,0,0,4.16667,0,0)">
            <path d="M196.497,369.094L203.682,375.606C203.844,375.754 204.076,375.765 204.199,375.627C204.323,375.492 204.29,375.264 204.128,375.114L196.941,368.6C196.777,368.45 196.545,368.443 196.424,368.577C196.3,368.714 196.332,368.944 196.497,369.094Z" style="fill:white;fill-rule:nonzero;"/>
        </g>
        <g transform="matrix(4.16667,0,0,4.16667,0,0)">
            <path d="M183.824,394.807C182.457,396.314 181.97,398.103 182.738,398.801C183.505,399.496 185.24,398.838 186.608,397.33L222.423,357.821C223.789,356.313 224.275,354.522 223.509,353.827C222.74,353.13 221.008,353.79 219.64,355.296L183.824,394.807Z" style="fill:white;fill-rule:nonzero;"/>
        </g>
        <g transform="matrix(4.16667,0,0,4.16667,0,0)">
            <path d="M214.985,348.697L222.171,355.211C222.416,355.433 222.906,355.291 223.264,354.893C223.625,354.496 223.717,353.995 223.474,353.773L216.288,347.261C216.043,347.038 215.553,347.18 215.193,347.576C214.832,347.975 214.742,348.476 214.985,348.697Z" style="fill:white;fill-rule:nonzero;"/>
        </g>
        <g transform="matrix(4.16667,0,0,4.16667,0,0)">
            <path d="M175.496,392.258L182.681,398.771C182.926,398.993 183.417,398.85 183.776,398.455C184.136,398.057 184.229,397.555 183.984,397.334L176.799,390.819C176.556,390.597 176.065,390.74 175.706,391.137C175.347,391.533 175.252,392.036 175.496,392.258Z" style="fill:white;fill-rule:nonzero;"/>
        </g>
        <g transform="matrix(4.16667,0,0,4.16667,0,0)">
            <path d="M218.863,356.155C218.863,356.155 221.05,354.137 219.868,353.063L220.491,352.378L222.585,354.277L219.974,357.158L218.863,356.155Z" style="fill:white;fill-rule:nonzero;"/>
        </g>
        <g transform="matrix(4.16667,0,0,4.16667,0,0)">
            <path d="M184.6,393.949C184.6,393.949 182.807,396.325 181.623,395.253L181.002,395.938L183.096,397.837L185.708,394.954L184.6,393.949Z" style="fill:white;fill-rule:nonzero;"/>
        </g>
        <g transform="matrix(4.16667,0,0,4.16667,0,0)">
            <path d="M223.509,353.827C224.275,354.522 223.789,356.313 222.423,357.821L186.608,397.33C185.24,398.838 183.505,399.496 182.738,398.801L223.509,353.827Z" style="fill:white;fill-rule:nonzero;"/>
        </g>
        <g transform="matrix(4.16667,0,0,4.16667,0,0)">
            <path d="M178.738,350.349C178.248,350.596 189.651,361.262 205.426,377.035L205.025,375.787L207.791,373.684C207.791,373.684 179.14,349.973 178.738,350.349Z" style="fill:white;fill-rule:nonzero;"/>
        </g>
        <g transform="matrix(4.16667,0,0,4.16667,0,0)">
            <path d="M217.66,391.437C218.875,393.282 218.653,395.635 217.162,396.678L217.098,396.724C216.358,397.209 215.435,397.324 214.489,397.047C213.509,396.759 212.631,396.086 212.016,395.155C210.801,393.308 211.022,390.958 212.514,389.914L212.581,389.868C213.317,389.384 214.242,389.269 215.188,389.544C216.169,389.835 217.046,390.506 217.66,391.437ZM209.47,387.011L209.455,387.017C209.54,387.147 210.678,388.879 210.174,391.096C209.71,392.561 209.949,394.325 210.954,395.855C211.735,397.037 212.861,397.893 214.134,398.265C215.059,398.537 215.982,398.524 216.815,398.252L216.938,398.399C217.378,398.757 217.73,399.168 218.047,399.598C218.206,399.815 218.364,400.027 218.493,400.26C218.611,400.497 218.696,400.753 218.665,401.072C218.635,401.411 218.811,401.751 219.133,401.911C219.553,402.119 220.063,401.949 220.271,401.529C220.48,401.109 220.307,400.601 219.891,400.391C219.603,400.248 219.428,400.042 219.291,399.815C219.162,399.585 219.064,399.336 218.961,399.089C218.766,398.593 218.602,398.078 218.53,397.513C218.517,397.421 218.48,397.334 218.441,397.249C220.02,395.669 220.184,392.956 218.722,390.738C217.942,389.553 216.815,388.698 215.544,388.325C215.199,388.224 214.851,388.165 214.51,388.141C211.947,387.592 210.936,385.978 210.936,385.978L210.932,385.986C208.653,382.812 207.013,379.689 207.271,378.996C208.074,376.84 207.791,373.684 207.791,373.684L203.514,376.845L209.47,387.011Z" style="fill:white;fill-rule:nonzero;"/>
        </g>
        <g transform="matrix(4.16667,0,0,4.16667,0,0)">
            <path d="M219.828,389.271C218.895,388.657 218.224,387.778 217.937,386.795C217.658,385.853 217.772,384.928 218.259,384.189L218.305,384.123C219.347,382.633 221.698,382.408 223.544,383.627C224.479,384.24 225.147,385.118 225.438,386.101C225.716,387.043 225.6,387.968 225.114,388.707L225.066,388.773C224.023,390.263 221.673,390.486 219.828,389.271ZM233.185,387.218C232.814,387.276 232.56,387.627 232.621,387.997C232.634,388.076 232.597,388.242 232.56,388.368C232.516,388.501 232.464,388.635 232.396,388.755C232.26,389.002 232.067,389.212 231.847,389.384C231.618,389.542 231.356,389.669 231.074,389.723C230.936,389.752 230.788,389.772 230.653,389.778L230.412,389.778L230.194,389.762C229.59,389.704 228.983,389.509 228.414,389.241C227.854,388.977 227.282,388.626 226.851,388.221L226.728,388.148C226.917,387.389 226.896,386.565 226.655,385.741C226.283,384.471 225.426,383.343 224.244,382.566C222.716,381.559 220.954,381.319 219.484,381.785C217.271,382.286 215.538,381.151 215.405,381.064L215.401,381.077L205.619,375.372L204.851,376.464C193.612,364.458 178.987,349.854 178.74,350.347C178.362,350.749 202.074,379.4 202.074,379.4C202.074,379.4 205.232,379.684 207.387,378.882C208.082,378.622 211.202,380.263 214.377,382.541L214.371,382.545C214.371,382.545 215.984,383.555 216.53,386.117C216.554,386.46 216.614,386.807 216.716,387.155C217.09,388.425 217.945,389.552 219.127,390.329C221.463,391.866 224.342,391.612 225.876,389.797L225.905,389.811L225.931,389.82C226.668,390.061 227.326,390.244 228.027,390.403C228.724,390.554 229.428,390.666 230.156,390.668C230.254,390.67 230.327,390.663 230.441,390.661C230.528,390.653 230.603,390.65 230.7,390.637C230.9,390.617 231.081,390.589 231.268,390.545C231.635,390.447 231.997,390.307 232.323,390.094C232.654,389.891 232.945,389.627 233.195,389.33C233.323,389.179 233.442,389.025 233.546,388.86C233.656,388.686 233.752,388.545 233.852,388.305L233.918,388.152C233.966,388.04 233.984,387.912 233.965,387.781C233.903,387.411 233.557,387.158 233.185,387.218Z" style="fill:white;fill-rule:nonzero;"/>
        </g>
        <g transform="matrix(4.16667,0,0,4.16667,0,0)">
            <path d="M206.294,376.165C206.774,376.644 206.776,377.426 206.294,377.905C205.814,378.386 205.036,378.386 204.556,377.903C204.074,377.424 204.074,376.644 204.554,376.165C205.035,375.686 205.814,375.686 206.294,376.165Z" style="fill:white;fill-rule:nonzero;"/>
        </g>
        <g transform="matrix(4.16667,0,0,4.16667,0,0)">
            <path d="M205.997,376.462C206.313,376.778 206.313,377.291 205.995,377.606C205.68,377.922 205.169,377.922 204.854,377.606C204.537,377.289 204.537,376.778 204.851,376.464C205.168,376.146 205.682,376.146 205.997,376.462Z" style="fill:white;fill-rule:nonzero;"/>
        </g>
    </g>
</svg>
