<svg xmlns="http://www.w3.org/2000/svg" viewBox="0 0 272 282.88"><defs><style>.cls-1{fill:#272729;}</style></defs><title>Asset 1</title><g id="Layer_2" data-name="Layer 2"><g id="OBJECTS"><path class="cls-1" d="M270.72,178.47a1.76,1.76,0,0,0-2.18,1.21c-16.9,58.68-71.4,99.67-132.54,99.67s-115.63-41-132.53-99.67a1.77,1.77,0,1,0-3.4,1,142.47,142.47,0,0,0,50.15,73.25,141.48,141.48,0,0,0,171.56,0,142.47,142.47,0,0,0,50.15-73.25A1.77,1.77,0,0,0,270.72,178.47Z"/><path class="cls-1" d="M8.81,83.62a1.77,1.77,0,0,0,2.35-.85A138,138,0,0,1,260.93,83a1.77,1.77,0,1,0,3.2-1.5A141.48,141.48,0,0,0,8,81.26,1.77,1.77,0,0,0,8.81,83.62Z"/><path class="cls-1" d="M10.54,176.41a1.18,1.18,0,0,0-.8,1.46,132.29,132.29,0,0,0,46.58,68,131.42,131.42,0,0,0,159.36,0,132.27,132.27,0,0,0,46.59-68,1.18,1.18,0,1,0-2.27-.65c-15.81,54.9-66.8,93.25-124,93.25S27.81,232.12,12,177.22A1.18,1.18,0,0,0,10.54,176.41Z"/><path class="cls-1" d="M254,87.41a1.33,1.33,0,0,0,.5-.11,1.18,1.18,0,0,0,.56-1.57,131.44,131.44,0,0,0-237.95-.19,1.18,1.18,0,0,0,2.13,1A128.1,128.1,0,0,1,44.82,50.27L43.64,80.66v.09a1.17,1.17,0,0,0,1.22,1.13A1.19,1.19,0,0,0,46,80.66L44.82,50.27A129.34,129.34,0,0,1,60.68,36.82L59.5,80.66v.06a1.17,1.17,0,0,0,1.21,1.14,1.16,1.16,0,0,0,1.15-1.2L60.68,36.81c2.58-1.84,5.21-3.6,7.91-5.25l-1.16,49.1v0a1.18,1.18,0,0,0,1.21,1.15,1.17,1.17,0,0,0,1.15-1.2L68.64,31.53q3.87-2.37,7.91-4.47l-1.18,53.6v0a1.18,1.18,0,0,0,2.36,0L76.55,27.05a128.21,128.21,0,0,1,126.9,4.53L202.3,80.66v0a1.18,1.18,0,0,0,2.36,0l-1.16-49q4,2.47,7.88,5.24l-1.15,43.81v.06a1.18,1.18,0,0,0,2.36-.06L211.45,36.9c2.69,1.94,5.32,4,7.86,6.12l-1.14,37.64a.08.08,0,0,0,0,.07,1.18,1.18,0,0,0,2.35-.07l-1.14-37.58q4.08,3.45,7.88,7.24L226.1,80.66v.09a1.17,1.17,0,0,0,1.22,1.13,1.19,1.19,0,0,0,1.14-1.22L227.3,50.37a128.53,128.53,0,0,1,25.59,36.36A1.17,1.17,0,0,0,254,87.41Z"/><path class="cls-1" d="M241.5,197a3.68,3.68,0,0,0,2.29.81,3.62,3.62,0,0,0,2.28-6.44L240.65,187a2.28,2.28,0,0,0,1.49-.83,2.32,2.32,0,0,0-.34-3.28L234.62,177a2.35,2.35,0,0,0-3.29.34,2.27,2.27,0,0,0-.5,1.64l-3.46-2.81a2.33,2.33,0,0,0,1.15-4.12l-7.18-5.83a2.32,2.32,0,0,0-3.28.34,2.26,2.26,0,0,0-.51,1.63l-3.71-3a9.74,9.74,0,0,0-13.7,1.42l-3.7,4.55q-2.17-5.94-4.7-11.86a227.18,227.18,0,0,0-110.95,0q-2.64,6.13-4.87,12.31l-4.06-5a9.74,9.74,0,0,0-13.7-1.42l-3.7,3a2.33,2.33,0,0,0-3.79-2l-7.19,5.83a2.33,2.33,0,0,0-.34,3.28,2.29,2.29,0,0,0,1.5.84L41.18,179a2.33,2.33,0,0,0-3.79-2l-7.19,5.84a2.33,2.33,0,0,0-.34,3.28,2.28,2.28,0,0,0,1.5.83l-5.43,4.41a3.63,3.63,0,0,0,2.28,6.44A3.66,3.66,0,0,0,30.5,197l7.79-6.33L43,196.5l0,0a5.48,5.48,0,0,0-.8,7.72l6.7,8.26a5.49,5.49,0,0,0,7.72.8l0,0,6.19,7.61L55,227.21a3.63,3.63,0,0,0,2.28,6.44,3.58,3.58,0,0,0,1.7-.43l.81,4.78,1-6.19,4.86-3.94,1,13.49L68,226.09v0l4.65-3.77,1.12,22.52,1.18-23.69V221c0-.07,0-.13-.05-.19l4.66,5.74,1.16,22.73,1-20.05,4.84,6,1.09,19,1-17.14a6.12,6.12,0,0,0,5,.4l1,20.94,1.05-22.12,3.73-3,1,1.27a.79.79,0,0,0,0,.3l1.18,26.43,1.07-24,6.64,8.18a1.1,1.1,0,0,0,.33.28l5.08,2.92a1.21,1.21,0,0,0,1.33-.11,1.18,1.18,0,0,0,.38-1.28l-1.81-5.57a1.16,1.16,0,0,0-.2-.38l-9.89-12.17,4-3.21a6.11,6.11,0,0,0,.89-8.6L98.16,203.53,99,186.67c1.66-.32,3.32-.62,5-.89l1,21.16,1-21.5c1.62-.26,3.24-.48,4.85-.69l1.07,23L113,184.47l.42-.06c1.44-.17,2.89-.31,4.34-.44l1.11,24.14L120,183.77c1.57-.14,3.14-.26,4.71-.35l1.13,24.69L127,183.32c1.55-.08,3.11-.14,4.67-.17l1.14,25.71,1.14-25.75c1.56,0,3.11,0,4.66,0l1.15,26.5,1.14-26.46c1.56,0,3.12.09,4.67.17l1.14,25.54,1.13-25.44c1.57.09,3.14.21,4.71.35l1.11,25.09L154.75,184c1.45.13,2.9.27,4.34.44l.42.06,1.08,23.64,1.07-23.36c1.61.21,3.23.43,4.84.68l1,22.29,1-21.94c1.65.27,3.31.57,5,.89L174.3,203l-11.6,14.27a6.12,6.12,0,0,0,.9,8.6l4,3.21-9.88,12.17a1.41,1.41,0,0,0-.21.38l-1.8,5.57a1.19,1.19,0,0,0,.37,1.28,1.22,1.22,0,0,0,.75.26,1.19,1.19,0,0,0,.58-.15l5.08-2.92a1,1,0,0,0,.33-.28l5.12-6.29,1,22.13L170,236.5l2.67-3.29,2.06,1.67,1.11,23.48,1-21.78a6,6,0,0,0,5,1l.94,16.56,1-17.38a6.1,6.1,0,0,0,1.44-1.26l3.59-4.42.92,18.18,1.05-20.61,4.8-5.92,1.1,22.06,1.18-23.69V221l5,4.08a1.18,1.18,0,0,0-.43,1l1.18,15.27,1.14-14.73,4.7,3.82a1.14,1.14,0,0,0-.07.61l1.18,6.94,1-5.84.84.68a3.63,3.63,0,0,0,4.58-5.63l-7.79-6.32,6.18-7.61,0,0a5.49,5.49,0,0,0,7.72-.8l6.7-8.26a5.49,5.49,0,0,0-.8-7.72l0,0,4.72-5.82ZM102.62,230.55l9.75,12,.79,2.45-2.24-1.28-9.74-12ZM44.84,195l-4.72-5.82L41.56,188l4.73,5.82Zm10.94-1.81a5.47,5.47,0,0,0-7.66-.84l-4.73-5.83,8.46-6.87,4.73,5.82A5.49,5.49,0,0,0,55.78,193.21Zm-2.1-15L55.12,177l4.73,5.82L58.41,184Zm8.8,23.28a5.49,5.49,0,0,0,7.72.8l6.18,7.62-8.46,6.87-6.19-7.62A5.47,5.47,0,0,0,62.48,201.46Zm9.55-.68,1.44-1.17,6.18,7.61-1.44,1.17Zm3.27-2.66a5.49,5.49,0,0,0,.79-7.71l-6.7-8.25a5.49,5.49,0,0,0-7.71-.81L57,175.53l5.78-4.7a2.55,2.55,0,0,1,3.5.37l21.39,26.34a2.49,2.49,0,0,1-.36,3.5l-5.78,4.69ZM58.46,211.79l1.45-1.17,6.18,7.61-1.45,1.17ZM93,199.87a7.36,7.36,0,0,1-2.69,5L59.75,229.68a.56.56,0,0,0-.13,0,1.21,1.21,0,0,0-1,.88l-.55.45a1.23,1.23,0,0,1-.8.29,1.27,1.27,0,0,1-.8-2.26l32.24-26.17a4.85,4.85,0,0,0,.7-6.82L68.06,169.71a4.86,4.86,0,0,0-6.82-.71L29,195.18a1.3,1.3,0,0,1-.81.28,1.25,1.25,0,0,1-1-.47,1.28,1.28,0,0,1-.28-.92,1.26,1.26,0,0,1,.47-.86L59.65,167A7.38,7.38,0,0,1,70,168.12l21.39,26.33A7.37,7.37,0,0,1,93,199.87Zm2.34.23A9.63,9.63,0,0,0,93.25,193l-3.48-4.29c2.43-.59,4.88-1.13,7.33-1.63l.82,16.18Zm73.91,33.52a1.17,1.17,0,0,0-.46-.07,1.19,1.19,0,0,0-1.13,1.23l0,.75-6.65,8.19L158.84,245l.8-2.45,9.74-12,1.44,1.17Zm7.35-33.52-1.93,2.38.74-15.43c2.3.47,4.59,1,6.88,1.53L178.75,193A9.67,9.67,0,0,0,176.63,200.1ZM215.49,229a1.27,1.27,0,0,1-.8,2.26,1.23,1.23,0,0,1-.8-.29l-32.23-26.17a7.41,7.41,0,0,1-1.08-10.39L202,168.11A7.4,7.4,0,0,1,212.36,167l32.23,26.17a1.25,1.25,0,0,1,.46.86,1.2,1.2,0,0,1-.28.92,1.25,1.25,0,0,1-1,.47,1.27,1.27,0,0,1-.8-.28L210.76,169a4.86,4.86,0,0,0-6.82.71l-21.39,26.34a4.86,4.86,0,0,0,.71,6.82Zm-13.68-26.78a5.48,5.48,0,0,0,7.71-.8,5.48,5.48,0,0,0,.75,7.67l-6.18,7.62-8.46-6.87Zm-8,6.13-1.44-1.17,6.18-7.61,1.44,1.17Zm8.81-26.23-6.7,8.25a5.5,5.5,0,0,0,.79,7.71l-6.17,7.61L184.75,201a2.49,2.49,0,0,1-.37-3.5l21.39-26.34a2.55,2.55,0,0,1,3.5-.37l5.78,4.7-4.72,5.82A5.5,5.5,0,0,0,202.61,182.16Zm4.75,37.24-1.44-1.17,6.18-7.61,1.44,1.17ZM213.6,184l-1.44-1.18,4.72-5.82,1.45,1.17Zm2.62,9.2a5.5,5.5,0,0,0-.79-7.72l4.72-5.82,8.47,6.87-4.73,5.83A5.48,5.48,0,0,0,216.22,193.21ZM227.16,195l-1.44-1.17,4.72-5.82,1.45,1.17Z"/><path class="cls-1" d="M135.05,260.78c8.81,0,12.79-5.75,11.92-12.57a48.27,48.27,0,0,0-10.35-23.84C117.09,248.16,127.56,260.78,135.05,260.78Zm7.63-17.34a31.37,31.37,0,0,1,.8,7.8,1.18,1.18,0,0,1-1.18,1.15h0a1.2,1.2,0,0,1-1.16-1.21,29.13,29.13,0,0,0-.74-7.21,1.18,1.18,0,0,1,2.3-.53Zm-3.49-8.68a1.78,1.78,0,1,1-1.78,1.77A1.77,1.77,0,0,1,139.19,234.76Z"/><path class="cls-1" d="M38.06,80.66,36.88,62.15,35.7,80.66v.14A1.19,1.19,0,0,0,37,81.91,1.18,1.18,0,0,0,38.06,80.66Z"/><path class="cls-1" d="M52.78,81.87a1.18,1.18,0,0,0,1.15-1.21L52.75,43.53,51.57,80.66v.07A1.17,1.17,0,0,0,52.78,81.87Z"/><path class="cls-1" d="M85.66,80.66l-1.18-57.1L83.3,80.66v0a1.18,1.18,0,0,0,2.36,0Z"/><path class="cls-1" d="M93.59,80.67l-.28-30-.9-30-.28,30c-.45,15-.89,30-.89,30v0a1.18,1.18,0,1,0,2.35,0Z"/><path class="cls-1" d="M101.53,80.66l-1.18-61.74L99.17,80.66v0a1.18,1.18,0,0,0,2.36,0Z"/><path class="cls-1" d="M108.32,81.86a1.19,1.19,0,0,0,1.14-1.22s-.51-15.75-1-31.49c-.08-15.75-.17-31.49-.17-31.49s-.5,15.75-1,31.5c-.08,15.76-.17,31.51-.17,31.51v0A1.18,1.18,0,0,0,108.32,81.86Z"/><path class="cls-1" d="M117.39,80.66l-1.18-63.42L115,80.66v0a1.18,1.18,0,1,0,2.35,0Z"/><path class="cls-1" d="M125.33,80.66l-1.18-64.27L123,80.66v0a1.18,1.18,0,0,0,1.2,1.16A1.2,1.2,0,0,0,125.33,80.66Z"/><path class="cls-1" d="M133.26,80.67s-.12-16.07-.25-32.14c-.46-16.07-.93-32.14-.93-32.14s-.12,16.06-.25,32.13c-.46,16.06-.93,32.12-.93,32.12v0a1.18,1.18,0,0,0,2.36,0Z"/><path class="cls-1" d="M141.19,80.66,140,16.39l-1.18,64.27v0A1.2,1.2,0,0,0,140,81.86,1.18,1.18,0,0,0,141.19,80.66Z"/><path class="cls-1" d="M148,81.86a1.19,1.19,0,0,0,1.14-1.22s-.48-16.06-1-32.13c-.1-16.06-.21-32.12-.21-32.12s-.48,16.07-1,32.14l-.2,32.14v0A1.18,1.18,0,0,0,148,81.86Z"/><path class="cls-1" d="M157.06,80.66l-1.18-63.42L154.7,80.66v0a1.18,1.18,0,1,0,2.36,0Z"/><path class="cls-1" d="M163.83,81.86a1.18,1.18,0,0,0,1.16-1.2l-1.18-63-1.18,63v0A1.19,1.19,0,0,0,163.83,81.86Z"/><path class="cls-1" d="M172.92,80.67,172.72,50c-.49-15.33-1-30.66-1-30.66s-.11,15.33-.21,30.65c-.49,15.33-1,30.65-1,30.65v0a1.18,1.18,0,1,0,2.35,0Z"/><path class="cls-1" d="M180.86,80.66l-1.18-58.1-1.18,58.1v0a1.18,1.18,0,0,0,2.36,0Z"/><path class="cls-1" d="M188.79,80.66l-1.18-56.32-1.18,56.32v0a1.2,1.2,0,0,0,1.21,1.15A1.17,1.17,0,0,0,188.79,80.66Z"/><path class="cls-1" d="M196.72,80.66l-1.18-52.92-1.17,52.92s0,0,0,0a1.18,1.18,0,0,0,2.35,0Z"/><path class="cls-1" d="M236.39,80.66l-1.18-21-1.18,21v.13a1.18,1.18,0,0,0,2.36-.13Z"/></g></g></svg>