<svg xmlns="http://www.w3.org/2000/svg" viewBox="0 0 328.63 92.23"><defs><style>.cls-1{fill:#272729;}</style></defs><title>Asset 2</title><g id="Layer_2" data-name="Layer 2"><g id="OBJECTS"><path class="cls-1" d="M49.82,32.87c-1-4.75-1.46-7.15-2.43-12l-6.74.26q-.37,33.62-.74,67.23l2.65-1c0,2.86-.05,4.29-.09,7.15l-.08,0C32.8,98.38,28,100.49,18.57,105.08c0-3.23,0-4.84,0-8.07l2.62-1.15q.21-37,.43-73.92l-6.73.31C13.87,28.08,13.35,31,12.3,37c-3.12.39-4.69.59-7.8,1V14.07l26.76-.15,26.68-.13c-.1,7.34-.16,11-.26,18.36C54.53,32.43,53,32.57,49.82,32.87Z" transform="translate(-4.5 -12.85)"/><path class="cls-1" d="M91.13,79c.15-9.37.23-14.06.38-23.43-4.34.67-6.51,1-10.85,1.8l-.4,24.42c-8.67,2.38-13,3.72-21.59,6.69,0-2.64.06-4,.09-6.62l3-.93.3-19.9-2.94.64.1-6.31,2.93-.56c.13-8.53.19-12.79.32-21.33a19.24,19.24,0,0,1,7.22-14.77c4.74-4,10.42-5.84,17.05-5.84a28.23,28.23,0,0,1,17,5.13c4.62,3.35,6.91,7.29,6.84,12.06q-.3,19.78-.59,39.56l3.06-.49c0,2.16,0,3.24-.08,5.4C104.2,76,99.83,76.9,91.13,79ZM92,25.24v-.36c0-.12,0-.24,0-.36a8.31,8.31,0,0,0-1.62-4.39,4.24,4.24,0,0,0-3.73-1.92,4.44,4.44,0,0,0-3.75,2.14A9.68,9.68,0,0,0,81.2,25c0,.12,0,.26,0,.38s0,.25,0,.38c-.17,10.33-.25,15.5-.42,25.84,4.33-.67,6.5-1,10.84-1.57C91.76,40.12,91.84,35.16,92,25.24Z" transform="translate(-4.5 -12.85)"/><path class="cls-1" d="M161.82,27.27c-1-3.49-1.55-5.23-2.58-8.72l-6.76,0-.24,46.58L155,65c0,2,0,3,0,5h-.08c-9.9.42-14.85.81-24.72,2,0-2.07,0-3.11.06-5.18l2.72-.28q.26-23.92.49-47.84l-6.75.08c-1.09,3.67-1.63,5.52-2.72,9.24-3.16.11-4.74.17-7.9.3.09-5.9.13-8.85.21-14.75l26.78,0h26.69c0,5.48,0,8.22,0,13.7C166.56,27.25,165,27.25,161.82,27.27Z" transform="translate(-4.5 -12.85)"/><path class="cls-1" d="M218.89,28.24c-1.09-3.77-1.64-5.64-2.73-9.36l-6.75-.09q.27,24.17.56,48.34l2.72.32c0,2.1,0,3.15.06,5.24h-.09c-9.86-1.32-14.8-1.8-24.7-2.37,0-2,0-3,0-5l2.73.15q-.15-23.42-.31-46.82l-6.76,0c-1,3.5-1.54,5.25-2.57,8.74-3.16,0-4.74,0-7.91,0,0-5.48,0-8.23,0-13.71l26.78,0,26.7,0c.08,6,.13,9,.22,15C223.63,28.43,222.05,28.37,218.89,28.24Z" transform="translate(-4.5 -12.85)"/><path class="cls-1" d="M273.4,77.66c-4,5.07-10.45,6-19.24,3.63s-15.37-6.52-19.64-12.65S228,54.5,227.89,44.22s1.81-18,5.88-23.29,10.49-8.08,19.26-8.08,15.5,3,19.52,9.39c5.5,8.73,6.2,18.86,6.64,28.81C279.72,63.2,277.44,72.59,273.4,77.66ZM258,27.18c-.65-5.73-2.26-8.59-4.86-8.65s-4.12,2.67-4.58,8.13-.63,12-.5,19.74.51,14.35,1.15,19.95,2.27,8.72,4.87,9.35,4.14-1.78,4.59-7.35.62-12.41.49-20.47S258.62,32.9,258,27.18Z" transform="translate(-4.5 -12.85)"/><path class="cls-1" d="M327.09,97.39c-3.75,6.28-10.26,7-18.84,3.13a38.88,38.88,0,0,1-19.21-18c-4.84-9.44-6.78-20.59-6.58-30.88.2-9.94.56-19.87,5.82-28.7,3.86-6.48,10.48-10.09,19.24-10.09s15.42,3.88,19.41,12.25c5.57,11.69,6.2,25.35,6.2,37.8C333.13,74.09,333.07,87.38,327.09,97.39ZM312.37,31.3c-.6-7.38-2.2-11.08-4.79-11.17s-4.12,3.37-4.6,10.31-.67,15.29-.58,25.11.45,18.29,1.06,25.46,2.19,11.31,4.73,12.36,4.06-1.93,4.54-9.06.7-15.93.63-26.32S313,38.68,312.37,31.3Z" transform="translate(-4.5 -12.85)"/></g></g></svg>